<mxfile host="app.diagrams.net" modified="2023-05-29T13:38:39.642Z" agent="Mozilla/5.0 (Macintosh; Intel Mac OS X 10_15_7) AppleWebKit/537.36 (KHTML, like Gecko) Chrome/113.0.0.0 Safari/537.36" etag="Ifyi4nyq93izhTV3bHIW" version="21.3.5" type="github">
  <diagram name="第 1 页" id="ANzjNIa2d4n2FwAmeAh-">
    <mxGraphModel dx="474" dy="650" grid="1" gridSize="10" guides="1" tooltips="1" connect="1" arrows="1" fold="1" page="1" pageScale="1" pageWidth="1169" pageHeight="827" math="0" shadow="0">
      <root>
        <mxCell id="0" />
        <mxCell id="1" parent="0" />
        <mxCell id="nxVavLcviBWLUvR2d1dI-2" value="八" style="rounded=0;whiteSpace=wrap;html=1;" vertex="1" parent="1">
          <mxGeometry x="180" y="130" width="30" height="30" as="geometry" />
        </mxCell>
        <mxCell id="nxVavLcviBWLUvR2d1dI-3" value="个" style="rounded=0;whiteSpace=wrap;html=1;" vertex="1" parent="1">
          <mxGeometry x="180" y="160" width="30" height="30" as="geometry" />
        </mxCell>
        <mxCell id="nxVavLcviBWLUvR2d1dI-4" value="月" style="rounded=0;whiteSpace=wrap;html=1;" vertex="1" parent="1">
          <mxGeometry x="180" y="190" width="30" height="30" as="geometry" />
        </mxCell>
        <mxCell id="nxVavLcviBWLUvR2d1dI-5" value="宝" style="rounded=0;whiteSpace=wrap;html=1;" vertex="1" parent="1">
          <mxGeometry x="180" y="220" width="30" height="30" as="geometry" />
        </mxCell>
        <mxCell id="nxVavLcviBWLUvR2d1dI-6" value="宝" style="rounded=0;whiteSpace=wrap;html=1;" vertex="1" parent="1">
          <mxGeometry x="180" y="250" width="30" height="30" as="geometry" />
        </mxCell>
        <mxCell id="nxVavLcviBWLUvR2d1dI-7" value="吃" style="rounded=0;whiteSpace=wrap;html=1;" vertex="1" parent="1">
          <mxGeometry x="180" y="280" width="30" height="30" as="geometry" />
        </mxCell>
        <mxCell id="nxVavLcviBWLUvR2d1dI-8" value="南" style="rounded=0;whiteSpace=wrap;html=1;" vertex="1" parent="1">
          <mxGeometry x="180" y="310" width="30" height="30" as="geometry" />
        </mxCell>
        <mxCell id="nxVavLcviBWLUvR2d1dI-9" value="瓜" style="rounded=0;whiteSpace=wrap;html=1;" vertex="1" parent="1">
          <mxGeometry x="180" y="340" width="30" height="30" as="geometry" />
        </mxCell>
        <mxCell id="nxVavLcviBWLUvR2d1dI-10" value="泥" style="rounded=0;whiteSpace=wrap;html=1;" vertex="1" parent="1">
          <mxGeometry x="180" y="370" width="30" height="30" as="geometry" />
        </mxCell>
        <mxCell id="nxVavLcviBWLUvR2d1dI-11" value="过" style="rounded=0;whiteSpace=wrap;html=1;" vertex="1" parent="1">
          <mxGeometry x="180" y="400" width="30" height="30" as="geometry" />
        </mxCell>
        <mxCell id="nxVavLcviBWLUvR2d1dI-12" value="敏" style="rounded=0;whiteSpace=wrap;html=1;" vertex="1" parent="1">
          <mxGeometry x="180" y="430" width="30" height="30" as="geometry" />
        </mxCell>
        <mxCell id="nxVavLcviBWLUvR2d1dI-13" value="有" style="rounded=0;whiteSpace=wrap;html=1;" vertex="1" parent="1">
          <mxGeometry x="180" y="460" width="30" height="30" as="geometry" />
        </mxCell>
        <mxCell id="nxVavLcviBWLUvR2d1dI-14" value="什" style="rounded=0;whiteSpace=wrap;html=1;" vertex="1" parent="1">
          <mxGeometry x="180" y="490" width="30" height="30" as="geometry" />
        </mxCell>
        <mxCell id="nxVavLcviBWLUvR2d1dI-15" value="么" style="rounded=0;whiteSpace=wrap;html=1;" vertex="1" parent="1">
          <mxGeometry x="180" y="520" width="30" height="30" as="geometry" />
        </mxCell>
        <mxCell id="nxVavLcviBWLUvR2d1dI-16" value="表" style="rounded=0;whiteSpace=wrap;html=1;" vertex="1" parent="1">
          <mxGeometry x="180" y="550" width="30" height="30" as="geometry" />
        </mxCell>
        <mxCell id="nxVavLcviBWLUvR2d1dI-17" value="现" style="rounded=0;whiteSpace=wrap;html=1;" vertex="1" parent="1">
          <mxGeometry x="180" y="580" width="30" height="30" as="geometry" />
        </mxCell>
        <mxCell id="nxVavLcviBWLUvR2d1dI-18" value="？" style="rounded=0;whiteSpace=wrap;html=1;" vertex="1" parent="1">
          <mxGeometry x="180" y="610" width="30" height="30" as="geometry" />
        </mxCell>
        <mxCell id="nxVavLcviBWLUvR2d1dI-35" value="B-age" style="rounded=0;whiteSpace=wrap;html=1;" vertex="1" parent="1">
          <mxGeometry x="340" y="130" width="100" height="30" as="geometry" />
        </mxCell>
        <mxCell id="nxVavLcviBWLUvR2d1dI-36" value="I-age" style="rounded=0;whiteSpace=wrap;html=1;" vertex="1" parent="1">
          <mxGeometry x="340" y="160" width="100" height="30" as="geometry" />
        </mxCell>
        <mxCell id="nxVavLcviBWLUvR2d1dI-37" value="E-age" style="rounded=0;whiteSpace=wrap;html=1;" vertex="1" parent="1">
          <mxGeometry x="340" y="190" width="100" height="30" as="geometry" />
        </mxCell>
        <mxCell id="nxVavLcviBWLUvR2d1dI-38" value="B-person" style="rounded=0;whiteSpace=wrap;html=1;" vertex="1" parent="1">
          <mxGeometry x="340" y="220" width="100" height="30" as="geometry" />
        </mxCell>
        <mxCell id="nxVavLcviBWLUvR2d1dI-39" value="E-person" style="rounded=0;whiteSpace=wrap;html=1;" vertex="1" parent="1">
          <mxGeometry x="340" y="250" width="100" height="30" as="geometry" />
        </mxCell>
        <mxCell id="nxVavLcviBWLUvR2d1dI-40" value="O" style="rounded=0;whiteSpace=wrap;html=1;" vertex="1" parent="1">
          <mxGeometry x="340" y="280" width="100" height="30" as="geometry" />
        </mxCell>
        <mxCell id="nxVavLcviBWLUvR2d1dI-41" value="B-food" style="rounded=0;whiteSpace=wrap;html=1;" vertex="1" parent="1">
          <mxGeometry x="340" y="310" width="100" height="30" as="geometry" />
        </mxCell>
        <mxCell id="nxVavLcviBWLUvR2d1dI-42" value="I-food" style="rounded=0;whiteSpace=wrap;html=1;" vertex="1" parent="1">
          <mxGeometry x="340" y="340" width="100" height="30" as="geometry" />
        </mxCell>
        <mxCell id="nxVavLcviBWLUvR2d1dI-43" value="E-food" style="rounded=0;whiteSpace=wrap;html=1;" vertex="1" parent="1">
          <mxGeometry x="340" y="370" width="100" height="30" as="geometry" />
        </mxCell>
        <mxCell id="nxVavLcviBWLUvR2d1dI-44" value="B-disease" style="rounded=0;whiteSpace=wrap;html=1;" vertex="1" parent="1">
          <mxGeometry x="340" y="400" width="100" height="30" as="geometry" />
        </mxCell>
        <mxCell id="nxVavLcviBWLUvR2d1dI-45" value="E-disease" style="rounded=0;whiteSpace=wrap;html=1;" vertex="1" parent="1">
          <mxGeometry x="340" y="430" width="100" height="30" as="geometry" />
        </mxCell>
        <mxCell id="nxVavLcviBWLUvR2d1dI-46" value="O" style="rounded=0;whiteSpace=wrap;html=1;" vertex="1" parent="1">
          <mxGeometry x="340" y="460" width="100" height="30" as="geometry" />
        </mxCell>
        <mxCell id="nxVavLcviBWLUvR2d1dI-47" value="O" style="rounded=0;whiteSpace=wrap;html=1;" vertex="1" parent="1">
          <mxGeometry x="340" y="490" width="100" height="30" as="geometry" />
        </mxCell>
        <mxCell id="nxVavLcviBWLUvR2d1dI-48" value="O" style="rounded=0;whiteSpace=wrap;html=1;" vertex="1" parent="1">
          <mxGeometry x="340" y="520" width="100" height="30" as="geometry" />
        </mxCell>
        <mxCell id="nxVavLcviBWLUvR2d1dI-49" value="B-symptom" style="rounded=0;whiteSpace=wrap;html=1;" vertex="1" parent="1">
          <mxGeometry x="340" y="550" width="100" height="30" as="geometry" />
        </mxCell>
        <mxCell id="nxVavLcviBWLUvR2d1dI-50" value="E-symptom" style="rounded=0;whiteSpace=wrap;html=1;" vertex="1" parent="1">
          <mxGeometry x="340" y="580" width="100" height="30" as="geometry" />
        </mxCell>
        <mxCell id="nxVavLcviBWLUvR2d1dI-51" value="O" style="rounded=0;whiteSpace=wrap;html=1;" vertex="1" parent="1">
          <mxGeometry x="340" y="610" width="100" height="30" as="geometry" />
        </mxCell>
        <mxCell id="nxVavLcviBWLUvR2d1dI-52" value="句子" style="rounded=1;whiteSpace=wrap;html=1;fillColor=#dae8fc;strokeColor=#6c8ebf;" vertex="1" parent="1">
          <mxGeometry x="165" y="660" width="60" height="40" as="geometry" />
        </mxCell>
        <mxCell id="nxVavLcviBWLUvR2d1dI-53" value="BIOES标注" style="rounded=1;whiteSpace=wrap;html=1;fillColor=#dae8fc;strokeColor=#6c8ebf;" vertex="1" parent="1">
          <mxGeometry x="350" y="660" width="80" height="40" as="geometry" />
        </mxCell>
      </root>
    </mxGraphModel>
  </diagram>
</mxfile>
